<svg width="23" height="23" viewBox="0 0 23 23" fill="none" xmlns="http://www.w3.org/2000/svg">
<path d="M13.6597 14.2047L12.0182 19.8553C11.7883 20.6467 11.6734 21.0424 11.4964 21.1427C11.3435 21.2292 11.1565 21.2292 11.0036 21.1427C10.8266 21.0424 10.7117 20.6467 10.4818 19.8553L8.84034 14.2047C8.79554 14.0505 8.77314 13.9734 8.73122 13.91C8.69412 13.8539 8.64609 13.8059 8.59 13.7688C8.52662 13.7269 8.4495 13.7045 8.29526 13.6597L2.64468 12.0182L2.64468 12.0182C1.85327 11.7883 1.45756 11.6734 1.35732 11.4964C1.27077 11.3435 1.27077 11.1565 1.35732 11.0036C1.45756 10.8266 1.85327 10.7117 2.64468 10.4818L8.29526 8.84034C8.4495 8.79554 8.52662 8.77314 8.59 8.73122C8.64609 8.69413 8.69412 8.64609 8.73122 8.59C8.77314 8.52662 8.79554 8.44951 8.84034 8.29528L8.84034 8.29526L10.4818 2.64468L10.4818 2.64468C10.7117 1.85327 10.8266 1.45756 11.0036 1.35732C11.1565 1.27077 11.3435 1.27077 11.4964 1.35732C11.6734 1.45756 11.7883 1.85327 12.0182 2.64468L12.0182 2.64468L13.6597 8.29526C13.7045 8.4495 13.7269 8.52662 13.7688 8.59C13.8059 8.64609 13.8539 8.69413 13.91 8.73122C13.9734 8.77314 14.0505 8.79554 14.2047 8.84034L19.8553 10.4818C20.6467 10.7117 21.0424 10.8266 21.1427 11.0036C21.2292 11.1565 21.2292 11.3435 21.1427 11.4964C21.0424 11.6734 20.6467 11.7883 19.8553 12.0182L14.2047 13.6597C14.0505 13.7045 13.9734 13.7269 13.91 13.7688C13.8539 13.8059 13.8059 13.8539 13.7688 13.91C13.7269 13.9734 13.7045 14.0505 13.6597 14.2047Z" stroke="#404040" stroke-width="1.5"/>
<path d="M4.7714 4.89907L4.19003 6.67086C4.12981 6.85438 3.87019 6.85438 3.80997 6.67086L3.2286 4.89907C3.20877 4.83863 3.16137 4.79123 3.10092 4.7714L1.32914 4.19003C1.14562 4.12981 1.14562 3.87019 1.32914 3.80997L3.10092 3.2286C3.16137 3.20877 3.20877 3.16137 3.2286 3.10093L3.80997 1.32914C3.87019 1.14562 4.12981 1.14562 4.19003 1.32914L4.7714 3.10093C4.79123 3.16137 4.83863 3.20877 4.89907 3.2286L6.67086 3.80997C6.85438 3.87019 6.85438 4.12981 6.67086 4.19003L4.89907 4.7714C4.83863 4.79123 4.79123 4.83863 4.7714 4.89907Z" fill="#404040"/>
<path d="M19.2714 19.3991L18.69 21.1709C18.6298 21.3544 18.3702 21.3544 18.31 21.1709L17.7286 19.3991C17.7088 19.3386 17.6614 19.2912 17.6009 19.2714L15.8291 18.69C15.6456 18.6298 15.6456 18.3702 15.8291 18.31L17.6009 17.7286C17.6614 17.7088 17.7088 17.6614 17.7286 17.6009L18.31 15.8291C18.3702 15.6456 18.6298 15.6456 18.69 15.8291L19.2714 17.6009C19.2912 17.6614 19.3386 17.7088 19.3991 17.7286L21.1709 18.31C21.3544 18.3702 21.3544 18.6298 21.1709 18.69L19.3991 19.2714C19.3386 19.2912 19.2912 19.3386 19.2714 19.3991Z" fill="#404040"/>
</svg>
